<svg xmlns="http://www.w3.org/2000/svg" width="271.6908" height="247.118" viewBox="0 0 71.8849 65.3833">
  <path d="M38.2495 63.9141c.3326 1.5565.0137 3.1314-.3325 4.6543-.3232 1.1693-.738 2.3995-1.5912 3.304-.3757.3983-.726.5867-1.1764.8758-.6555.3236-1.3063.35-1.9853.0504-.2707-.1194-.5635-.2352-.7629-.4538-.0606-.0665.2836-.0335.2445-.1146-.1615-.3351-.4756-.5722-.7135-.8584-1.3492-2.0194-1.9307-4.429-2.0688-6.8345-.0321-.5589-.0113-1.1196-.0169-1.6793.1101-2.7168.6019-5.435 1.7914-7.8993.1858-.385.4122-.7489.6184-1.1233.7358-1.0654 1.6956-2.2318 3.0767-2.4193.7324-.0994 1.2635.0781 1.9722.2263.3742.1915.7762.3364 1.1226.5745.131.09.167.2736.2776.3878 1.3324 1.3773 1.2691.9817 2.4304 2.6524 1.1624 1.6721 1.3475 2.3492 2.201 4.2634 1.968 4.9963 2.4881 10.3717 2.5361 15.701.01 1.1103-.0335 2.2206-.0503 3.3309-.2624 5.2066-.9558 10.4226-2.363 15.4522-.2398.857-.5326 1.6982-.7988 2.5473-1.0732 3.0483-2.5004 5.9808-4.3918 8.609-1.0522 1.4623-1.375 1.7406-2.5576 3.0278-.4315.3717-.837.776-1.2947 1.1152-1.1492.8518-3.1205 1.9318-4.6224 1.501-.328-.0942-.6063-.3137-.9094-.4705.1636.014.5235.2028.4907.0419-.0877-.4313-.5202-.7162-.7088-1.1138-.2407-.5075-.4207-1.0442-.5711-1.5854-.6847-2.4637-.6184-4.6384-.5995-7.1684.3427-6.0533 1.782-12.0142 3.998-17.6507.4277-1.0878.9223-2.1481 1.3834-3.2222 1.6664-3.3908 3.6053-6.6889 6.1434-9.5086 1.0917-1.2128 1.5457-1.5498 2.7273-2.5766 1.4555-.9878.8138-.4855 1.9522-1.4716l-.0716-.0477c-1.8885.3614-1.0163.0075-2.618 1.058-.4562.3612-.9392.691-1.3688 1.0836-.504.4605-.9661.9655-1.4258 1.4703-.5413.5943-1.081 1.192-1.5759 1.8256-1.85 2.3686-3.2522 5.0234-4.5825 7.7068-.4574 1.0785-.952 2.1419-1.372 3.2354-.9199 2.3938-1.5555 4.5423-2.211 7.0223-.919 3.4772-1.6636 7.0005-1.9114 10.597-.1155 2.4687-.2652 4.6423.3047 7.0704.1373.5852.5869 2.2012 1.1173 2.7087.614.5873 1.3887.9791 2.083 1.4687.3113.1381.6017.3391.9338.4144 1.5287.3468 3.394-.8073 4.517-1.7037.4456-.3557.8433-.7675 1.265-1.1512 1.1393-1.3219 1.4529-1.6178 2.4741-3.0983 1.8431-2.672 3.231-5.6382 4.2995-8.696.2577-.8563.5472-1.7037.7732-2.5689.2367-.9056.4234-1.8238.614-2.7403.8787-4.2262 1.404-8.5056 1.5866-12.8197.0041-6.4117-.1066-12.9707-2.4234-19.0396-.8032-1.9311-.9375-2.5324-2.0546-4.225-1.4013-2.1232-3.4182-3.725-5.7361-4.7559-.7529-.1514-1.2822-.3314-2.0572-.2065-1.3902.224-2.3237 1.4685-3.0377 2.5557-.1992.3833-.4216.7553-.5975 1.1498-1.1175 2.5065-1.593 5.2503-1.7463 7.9728.002.5618-.0196 1.1242.0065 1.6854.1116 2.4005.6658 4.805 1.9522 6.8546 1.0636 1.3149.6214.9182 2.4976 2.1949.8887.6048 1.8415.8385 2.8061.2812.4988-.3614.7115-.4649 1.1045-.9679.7727-.989 1.1431-2.2431 1.4213-3.4425.3268-1.523.6605-3.0743.4456-4.6387z" />
  <path d="M49.6663 54.7883c-.2048-.3788-.253-.8073-.3467-1.2196-.0972-.2878-.174-.571-.1513-.8759.0224-.0064.0497-.0343.0674-.019.0208.0178.031.0938.006.0821-.4963-.2317-.9505-.5517-1.4573-.7597-.0647-.0266.0579.1277.0795.1943.1295.3987.2044.7893.299 1.202.684 3.165.6632 6.423.6315 9.6442-.0401 2.3934-.2724 4.7757-.3593 7.1668l.0535.5584 1.633.8416.1014-.4784c.14-2.4282.1588-4.8597.1393-7.292-.1074-3.2466-.1376-6.5201-.7253-9.7243-.2464-1.6073-.0135-1.3874-1.8193-2.337-.0714-.0376-.1017.2688-.0385.2388.1118.35.23.696.3965 1.0244.2109.4315.2863.922.5544 1.3297z" />
  <path d="M42.474 52.9544c-.4156-.7745-.1281-1.5383.2191-2.2762.767-1.3734 1.8328-2.197 3.2236-2.8732 1.1525-.4199 2.4425-.547 3.6548-.3126.9494.1836 1.492.4375 2.3959.7827.3917.2161.819.3774 1.175.6483.0794.0603-.356-.063-.2985.0185.2734.388.6944.649 1.0152.9988.5983.6524 1.1659 1.4067 1.5986 2.181.2191.392.3867.8108.58 1.2162.9606 2.3525 1.0862 4.8818.7117 7.3765-.0903.6012-.2327 1.1934-.3491 1.7901-.7151 2.5189-1.6083 5.0873-3.246 7.174-.242.3083-.5225.5844-.7838.8766-1.0631 1.036-2.337 1.8997-3.8507 2.0604-.2458.0261-.4943.0053-.7414.008.3661.459-1.7385-.6413-1.3316-.416.3478.1925.6725.4956 1.0687.5296.2198.0188-.3277-.2997-.4585-.4774-.3778-.5133-.3453-.6755-.4843-1.2919-.0052-.2488-.0432-.499-.0156-.7464.1263-1.134.9344-2.1703 1.9049-2.7324.2985-.1729.635-.2698.9524-.4047 2.1646-.6492 4.3243-.314 6.3993.4553-.4272-.7412 1.409.9803 1.2273.5678-.0146-.033-1.8692-1.0567.287.1432l.2533.1002c-.0045-.0481.0263-.117-.0135-.1444-1.0104-.6937-2.1244-1.3017-3.2341-1.8236-.3044-.1101-.603-.2382-.9133-.3304-1.8238-.5419-3.7421-.5637-5.562-.001-.3195.1514-.6571.2694-.9585.4543-1.0006.6139-1.8578 1.6754-2.0203 2.8624-.035.256-.0035.5167-.0052.775.1057.64.0664.8315.4252 1.3796.5768.8813 1.8967 1.445 2.6393 1.8615.2023.1134.4257.19.6507.2463.2343.0587.4787.0643.718.0964.2506-.0138.5033-.006.7517-.0414 1.52-.217 2.7848-1.1273 3.7998-2.2336.6989-.8478.9287-1.0629 1.506-2.0452 1.1246-1.9136 1.7765-4.0572 2.401-6.1714.126-.5965.2745-1.1887.378-1.7896.4292-2.4926.4058-5.0404-.5672-7.4067-.19-.4123-.3512-.839-.5698-1.2368-.5466-.9944-1.7326-2.5663-2.6322-3.2505-1.6536-1.2577-2.1866-1.4907-3.7123-2.2982-.9127-.3393-1.5077-.607-2.469-.7823-1.2374-.2256-2.5494-.052-3.715.3884-1.4485.7558-2.385 1.5867-3.1749 3.0363-.3459.8343-.5666 1.6392-.1437 2.4924z" />
  <path d="M65.174 49.8786c.3452-.2538.7612-.3888 1.0338-.7314.224-.2377.2318-.504.1392-.8-.108-.2248-.2812-.3726-.4954-.4955-1.6186-.9287-1.0495-.6988-1.8882-1.0142-.7586-.2651-1.498-.1737-2.2674-.0288-1.407.3547-2.3272 1.4376-3.2062 2.5143-.9203 1.193-1.6316 2.5196-1.8932 4.0084-.0672 1.1423.3019 1.8998 1.2436 2.5289 1.7873 1.1328 2.327 1.2856 4.1341 1.3522.331.0543.6926-.0513 1.0216.0142.0393.0078.0704.0382.1056.0572l-1.7613-1.0232c-.4737.5755-1.068 1.038-1.6032 1.555-1.158 1.2034-2.1706 2.5462-3.1077 3.9264-1.2138 1.7765-2.1209 3.7287-2.7284 5.7881-.2352 1.1617-.4815 2.3534-.2018 3.5324.135.5692.2631.7586.5146 1.2628.7286 1.0805 1.667 1.4463 2.9196 2.0878.1385.071.3018.0874.4573.0938.469.0194.7443-.1002 1.1929-.2273 1.5275-.5857 2.6736-1.7682 3.7463-2.9582a13.8122 13.8122 0 0 0 2.1158-3.046c.3499-.5958.5363-1.24.7195-1.8973.0832-.3238.2514-.6476.2687-.9843-.6268-1.7463-1.722-1.5178-2.3329-.7061-.404.5071-.6523 1.1051-.888 1.703-.4008.93-.639 1.9054-.8303 2.8959-.1483.7778-.054 1.5134.2269 2.2433.4545 1.0063 1.6037 1.9969 2.7445 1.7744.526-.1392.9474-.5163 1.3331-.883.5713-.5777 1.0797-1.2262 1.5116-1.9141.4202-.6081.7636-1.266 1.085-1.931.2517-.533.4501-1.0835.6078-1.6503.1043-.284.2486-.5497.3346-.8399.198-.7346-.5585-.5408-1.7593-1.0338-.0403-.0166-.2558.6414-.2747.6969-.2588.825-.4528 1.671-.5851 2.5254-.1366.8215-.1294 1.635.057 2.4448.3936 1.208 1.1998 1.2791 2.4383 1.959.5386-.0198.9648-.338 1.3547-.6826.4285-.4217.81-.894 1.1907-1.3606.4407-.5955.6963-1.2957 1.0416-1.9447.2853-.5512.5102-1.1306.7777-1.69.1851-.424.3162-.8658.4914-1.2947.0794-.266.2157-.5499.1706-.8339-.6238-.2802-1.2254-.6164-1.8715-.8405-.0901-.0313-.5397 1.1636-.5611 1.2315-.3278.8432-.4707 1.7414-.5702 2.6361-.097.6386-.0258 1.277.1457 1.8945.3957 1.0065 1.3577 1.6025 2.4607 1.8223.5535-.046.9714-.3838 1.3491-.7605.5043-.496.8997-1.075 1.274-1.6708.2744-.4778.5953-.9375.8195-1.4419.2197-.4351.4173-.8821.5261-1.3585.1064-.3328.2045-.6636.276-1.0052.2719-.9501-1.3801-2.172-2.04-1.1637-.2637.5518-.349 1.1533-.496 1.74-.2117.7962-.2546 1.6013-.2108 2.419.0444.5182.1919 1.0047.506 1.4215.7866.734 1.7596 1.5563 2.8552 1.332.5523-.202.9762-.5751 1.3642-1.0022.4917-.5652.8907-1.2017 1.2428-1.8608.338-.5563.5939-1.1498.8577-1.7424.1947-.3046.2797-.6333.332-.9861.0853-1.1748.171-.491-1.8568-1.5306-.2821.4837-.4545 1.0117-.6457 1.5342-.2709.7858-.4398 1.602-.5822 2.4194-.1582.6895-.0942 1.377-.0143 2.0698.0808.3799.1423.7849.4563 1.042 1.72.9804 1.7003 1.517 3.0006.8661.5746-.3158 1.0291-.8146 1.5275-1.2382.5105-.5273.9542-1.1058 1.345-1.7263.356-.5997.5961-1.253.8836-1.885.1341-.416.3487-.8035.4743-1.2215.0946-.2562.1473-.5164.096-.7867-.6813-.3577-1.3378-.7672-2.044-1.073-.1217-.0528-.479 1.097-.4987 1.1693-.1657.711-.3435 1.4175-.4449 2.1414-.117.619-.086 1.2355.0032 1.854.082.4261.2096.832.4685 1.183.4832.4723 1.7594 1.581 2.5947 1.3117.1347-.0434.2564-.1198.3852-.1783.454-.2306.768-.6 1.085-.9852.4836-.5504.8197-1.2103 1.1716-1.8483.3613-.5988.6458-1.24.9938-1.8456.171-.4088.3798-.8006.5338-1.2167.0916-.297.2176-.576.2866-.8805.2609-.9905-1.4977-1.8573-2.2623-1.224-.3234.4151-.5402.921-.7128 1.4163-.235.6677-.4286 1.3497-.6079 2.0343-.1385.7161-.2256 1.4389-.1585 2.167.042.5019.2013.984.4753 1.4058.6394.8423 1.4517 1.0604 2.4998 1.6607.1362.0781.157.047.3084.0222.4177-.09.7988-.4108 1.1067-.7002.4216-.3206.7548-.732 1.0961-1.1327.3437-.4165.5271-.9257.784-1.3938.2515-.603.5944-1.1595.882-1.7444.2603-.5027.461-1.0327.7246-1.5338.1315-.3508.336-.6667.4945-1.0032.5114-1.1756-.9239-1.1533-2.069-1.7263-.3557.3126-.5394.7742-.7015 1.2088-.2754.6477-.3955 1.3467-.5374 2.0326-.2058.908-.1693 1.8416-.0776 2.761.1402.697.3529 1.3847.7236 1.994.6944.8543 1.8994 1.275 2.7929 1.7563.2643.1423.543.0652.8065-.013.0891-.0297.1857-.0425.2673-.089.2547-.1454.7387-.752.6953-1.06-.0267-.1899-.1352-.3588-.2029-.5381l-.0546-.437-.2733-.1546-.35.1969c-.1915.0183-.3868.012-.5743.0549-.3735.0854-.3162.1806-.6219.3423-.2767.1463-.5952.2108-.8995.2663-.2347.0016-.3077.0213-.5247-.0434-.0808-.024-.3066-.1379-.2349-.0937 3.5333 2.1746 2.0903 1.3303 1.43.796-.437-.5714-.6957-1.2379-.8647-1.9353-.1504-.8967-.1808-1.8166-.0005-2.7117.1465-.6745.2304-1.3732.5084-2.0098.126-.3403.2795-.817.622-.9894-.657-.371-1.33-.7155-1.9714-1.113-.0317-.0196.065-.0474.1022-.0451.0197.001.0256.0331.0268.0528.007.11-.0419.2338-.0736.336-.1492.3387-.3641.646-.4765 1.0025-.2481.5092-.4695 1.0297-.7081 1.5432-.3.5748-.6094 1.1442-.8824 1.7328-.2573.45-.4489.9376-.7723 1.3476-.3366.393-.6631.7946-1.081 1.107-.2836.2478-.607.543-1.0023.5487-.6838-.2405-2.1662-1.2027 1.6097.9846.048.0278-.0906-.0642-.1343-.0983-.1756-.1367-.1234-.0929-.2643-.271-.3385-.349-.507-.8343-.5706-1.3094a6.0443 6.0443 0 0 1 .0844-2.1182c.144-.6878.3573-1.3608.568-2.0305.1566-.4563.3295-.9236.6409-1.2997.7504-.4088 1.2643.6867-1.639-1.1251-.0393-.0245.3427-.076.104.1144-.0905.2884-.2666.5359-.353.8233-.1378.407-.3543.7871-.5167 1.1838-.3238.6195-.6452 1.2402-.9804 1.8536-.3402.6273-.697 1.259-1.1778 1.7907-.306.3518-.6096.6957-1.0477.8863-.1704.077-.2975.1372-.487.0858-.05-.0135-.1872-.0864-.143-.0597.5804.3497 2.5918 1.5333 1.7528 1.0299-.3347-.251-.4515-.6898-.5713-1.0727-.1008-.6077-.1674-1.2032-.0751-1.8191.0855-.719.221-1.4253.4043-2.126.4793-1.6182 1.1317-.5684-1.4413-2.1119.1109.124-.0695.482-.0772.6302-.1493.4062-.321.8018-.4392 1.2182-.2585.634-.4992 1.2751-.8441 1.8697-.3639.6082-.8054 1.1598-1.2908 1.6762-.4843.4131-.9129.9154-1.4992 1.1868-.1877.0847-.3723.184-.5831.1913-.0836.0029-.3168-.0967-.2452-.0535.5863.3544 1.1828.6916 1.7742 1.0374-.429-.1906-.4672-.4593-.5981-.8913-.0924-.6796-.1881-1.355-.0594-2.0388.1248-.8097.3128-1.608.563-2.388.1688-.5.339-.9958.608-1.4527-1.85-1.178-1.7123-1.737-1.8611-.577-.0404.3315-.1751.6249-.3213.923-.255.5904-.4745 1.1943-.8081 1.7493-.3552.6406-.7525 1.255-1.2478 1.7984-.353.3921-.7579.7516-1.2866.8726-.1761.013-.2023.0285-.3744-.011-.0516-.0118-.1953-.0788-.1503-.051 2.9698 1.8349 2.086 1.2558 1.4484.8315-.3644-.369-.5584-.818-.6398-1.3318-.0604-.8036-.0821-1.6013.1453-2.3862.1171-.569.1835-1.1458.4662-1.6646.025-.0314.0452-.0674.0751-.0942.0193-.0172.091-.0206.0693-.0348-2.533-1.6558-1.5643-1.5924-1.7157-.732-.0542.3426-.178.6651-.2908.9914-.0885.466-.2559.909-.4822 1.3263-.2457.4867-.531.951-.7937 1.4284-.3632.5805-.7402 1.1551-1.2355 1.6347-.3393.3141-.7521.6558-1.2456.5652-.7237-.3097-.2767-.1262 1.485.9095.0441.026-.0901-.0512-.1266-.0872-.1403-.1386-.2157-.3428-.3214-.5045-.2426-.586-.3104-1.222-.2594-1.8534.0866-.8853.2188-1.7655.5498-2.5977.1022-.2797.2158-.551.3538-.8152.1213-.2321.2024-.295.1967-.299-.5351-.3729-1.1193-.6698-1.679-1.0047.2436.0048.0048.542-.017.674-.156.4311-.296.8666-.47 1.2902-.2618.5598-.4532 1.153-.753 1.6956-.3276.6442-.6524 1.2904-1.0887 1.8707-.3748.4558-.742.922-1.1596 1.339-.3577.2965-.7695.6111-1.261.4957.5153.3042 1.0342.6025 1.5458.9128.0466.0282-.1035-.037-.1496-.0661-.267-.1694-.3946-.4668-.5125-.745-.235-.7847-.2668-1.583-.1291-2.3928.1279-.8405.302-1.6762.5867-2.479.014-.0337.1735-.4223.2119-.4926.0244-.0449.1288-.0948.088-.1256-.3889-.2924-1.5772-1.7302-1.712-.9372-.069.2978-.2147.5654-.3197.851-.1263.5635-.365 1.0839-.5978 1.6101-.3126.6599-.6294 1.319-1.0352 1.9286-.4533.6583-.9025 1.3265-1.505 1.8615-.3723.3302-.7807.6746-1.2865.7568-.6861-.0257-1.7803-.7932 1.1627.856.0655.0367-.1142-.099-.1616-.1574-.0687-.0845-.24-.3844-.2885-.467-.3144-.6907-.4459-1.4026-.3112-2.1616.1299-.991.3914-1.9482.7789-2.8712.2558-.5698.5175-1.1364.9234-1.6183.0375-.043.1504-.1835.2147-.2227.1052-.0642.1802.0011.1518-.0163-1.6424-.9966-2.311-1.0493-1.5744-.9768.146.2551-.1633.6567-.2023.9105-.2407.6183-.403 1.27-.7569 1.8436-.5342 1.1005-1.2425 2.102-2.0436 3.0254-1.0444 1.1765-2.1713 2.3372-3.705 2.8406-.4702.1-.685.1917-1.1604.1258-.1455-.0202-.5395-.2168-.4213-.1296.4193.3093.8807.5585 1.3389.8064.1554.0841-.3002-.1908-.4277-.3132-.1412-.1358-.248-.3034-.372-.455-.1058-.1842-.2273-.3603-.3177-.5526-.6215-1.323-.4583-2.7756-.1757-4.1637.5662-2.0555 1.4123-4.014 2.6247-5.7777.9477-1.365 1.9778-2.6903 3.198-3.8243.5868-.5307 1.2512-.9846 1.7706-1.5838-2.0519-1.4784-1.156-1.2036-2.7824-1.2073-.3864-.0096-.7709-.0241-1.154-.0817-.7355-.1105-1.9972-.7345.4367.5992-.9844-.5312-1.394-1.2212-1.4047-2.3522.0664-.4567.0926-.7576.2314-1.2046.3146-1.0135.8687-1.9397 1.4642-2.8088.8387-1.0623 1.7422-2.112 3.1237-2.4234.7315-.1261 1.4457-.1997 2.16.0633.6628.2756.2985.138-.872-.5606-.077-.046.1552.0902.2336.1337.22.122.1652.0596.3204.2307.0314.0346.0588.0726.0882.1089.2123.252.3012.5366.2728.8673-.0301.1129-.0336.2338-.0791.3414-.1028.2436-.3736.4129-.559.5827zM95.548 56.2853c-.5389.3343-.967.8087-1.259 1.3691-.1317.2917-.334.6666-.075.941-.3095.8102 2.2869 1.7836 2.4963.7296-.0249-.9514-1.6451-2.086-2.3885-1.3785-.2292.3613.2411.6322.4717.8299l.7819.4044c.2777.0813.5413.2283.8173.1012.349 1.37-2.8074-1.8347-1.7792-1.012.0143.0208.0773.031.0587.048-.0528.048-.1386.0522-.199.0248l1.8504 1.0753c-.4557-.1548-.324-.347-.2411-.7646.1518-.5847.3984-1.0683.8073-1.5195z" style="display:inline;stroke-width:.264999" transform="translate(-26.4554 -46.3723)"/>
</svg>