<?xml version="1.0" encoding="UTF-8" standalone="no"?>
<!-- Created with Inkscape (http://www.inkscape.org/) -->

<svg
   width="271.6908"
   height="247.11804"
   viewBox="0 0 71.884855 65.383315"
   version="1.1"
   id="svg1"
   sodipodi:docname="firma1.svg"
   inkscape:version="1.3.2 (091e20e, 2023-11-25)"
   xmlns:inkscape="http://www.inkscape.org/namespaces/inkscape"
   xmlns:sodipodi="http://sodipodi.sourceforge.net/DTD/sodipodi-0.dtd"
   xmlns="http://www.w3.org/2000/svg"
   xmlns:svg="http://www.w3.org/2000/svg">


  <g
     transform="translate(-26.455376,-46.372348)">
    <path
       style="fill:currentColor;"
       id="path30"
       d="m 38.249484,63.914101 c 0.332592,1.556525 0.01376,3.131447 -0.332462,4.654317 -0.323207,1.169324 -0.73804,2.399501 -1.591249,3.304011 -0.375669,0.398259 -0.725903,0.586634 -1.176349,0.875742 -0.655497,0.32367 -1.306306,0.349993 -1.985354,0.05041 -0.270697,-0.119431 -0.563483,-0.23517 -0.762854,-0.453782 -0.06066,-0.06651 0.283601,-0.03349 0.244517,-0.114575 -0.161552,-0.335161 -0.475665,-0.572252 -0.713496,-0.858377 -1.349243,-2.019417 -1.93072,-4.429025 -2.068886,-6.834569 -0.0321,-0.558882 -0.01122,-1.11955 -0.01683,-1.679323 0.110087,-2.716792 0.601853,-5.434867 1.791372,-7.899297 0.185785,-0.384911 0.412244,-0.748832 0.618365,-1.123249 0.73587,-1.065374 1.695606,-2.231811 3.076726,-2.419302 0.732369,-0.09942 1.263497,0.07811 1.972225,0.226314 0.374198,0.191481 0.776179,0.336359 1.122593,0.574447 0.131024,0.09005 0.167021,0.273609 0.277564,0.387871 1.332434,1.377239 1.269158,0.981663 2.43047,2.652345 1.162339,1.672164 1.347415,2.349265 2.201037,4.263395 1.967849,4.996342 2.488023,10.371733 2.536029,15.700986 0.01,1.110385 -0.03353,2.220609 -0.0503,3.330911 -0.262408,5.206627 -0.955802,10.422618 -2.363036,15.452254 -0.239765,0.856957 -0.532537,1.698194 -0.798806,2.547289 -1.073132,3.048297 -2.500384,5.980771 -4.391713,8.609021 -1.052237,1.46222 -1.375,1.7406 -2.557619,3.02777 -0.431564,0.37171 -0.837117,0.77596 -1.29469,1.11514 -1.149194,0.85187 -3.120504,1.93188 -4.622435,1.50096 -0.328049,-0.0941 -0.606256,-0.31362 -0.909381,-0.47042 0.163573,0.014 0.523454,0.20279 0.49072,0.0419 -0.08775,-0.43124 -0.520277,-0.71616 -0.708832,-1.11379 -0.24067,-0.50753 -0.420714,-1.04418 -0.571106,-1.58537 -0.684659,-2.46375 -0.618357,-4.63846 -0.599551,-7.16847 0.342744,-6.053237 1.782035,-12.014188 3.998079,-17.650625 0.427691,-1.087816 0.922237,-2.148144 1.383356,-3.222215 1.666372,-3.390826 3.605289,-6.6889 6.143426,-9.508593 1.0917,-1.212803 1.545677,-1.5498 2.727251,-2.576637 1.455531,-0.987766 0.813821,-0.485465 1.952281,-1.471554 0,0 -0.07168,-0.04774 -0.07168,-0.04774 v 0 c -1.888421,0.361431 -1.016315,0.0075 -2.617914,1.057976 -0.456277,0.361198 -0.939247,0.691025 -1.36883,1.083595 -0.503973,0.460553 -0.966166,0.965552 -1.425858,1.470309 -0.541295,0.59436 -1.081006,1.192117 -1.575853,1.82567 -1.850025,2.368592 -3.252208,5.023389 -4.582522,7.706783 -0.457357,1.078447 -0.951908,2.141868 -1.372069,3.235343 -0.919797,2.393802 -1.555401,4.542317 -2.210911,7.022304 -0.919104,3.477225 -1.663573,7.000525 -1.911366,10.597034 -0.115559,2.46865 -0.26527,4.64234 0.304607,7.07037 0.13735,0.58519 0.586909,2.20122 1.11737,2.70871 0.613894,0.58731 1.388705,0.97913 2.083059,1.46869 0.311253,0.13815 0.601663,0.33912 0.933757,0.41446 1.528678,0.34678 3.394048,-0.80734 4.516988,-1.70378 0.445555,-0.3557 0.843325,-0.76743 1.264989,-1.15115 1.139332,-1.32189 1.45289,-1.61779 2.474124,-3.09831 1.843079,-2.672 3.230946,-5.63819 4.29942,-8.696081 0.25776,-0.856258 0.547225,-1.703605 0.77328,-2.568771 0.236643,-0.905687 0.423349,-1.82386 0.613918,-2.740348 0.878768,-4.226194 1.40412,-8.505592 1.58665,-12.819731 0.0041,-6.411685 -0.106577,-12.970706 -2.423393,-19.039597 -0.80323,-1.93109 -0.937511,-2.532409 -2.054568,-4.224909 -1.40135,-2.123239 -3.418261,-3.725042 -5.736141,-4.755959 -0.752882,-0.151389 -1.282215,-0.331446 -2.057251,-0.206547 -1.39014,0.224028 -2.323606,1.468493 -3.0377,2.555748 -0.19916,0.383251 -0.421598,0.755277 -0.597477,1.149755 -1.117521,2.506495 -1.593006,5.250362 -1.746319,7.97288 0.0021,0.561795 -0.01955,1.124196 0.0065,1.68539 0.111611,2.400438 0.665802,4.80499 1.952217,6.854598 1.063625,1.314849 0.621395,0.918172 2.497579,2.19484 0.888791,0.604787 1.84158,0.838573 2.806195,0.281218 0.498761,-0.361355 0.711499,-0.464889 1.104455,-0.967867 0.772724,-0.989071 1.143135,-2.243135 1.421305,-3.442526 0.3268,-1.522902 0.660453,-3.074244 0.445556,-4.638722 z"
       inkscape:label="path30" />
    <path
       style="fill:currentColor;"
       id="path40"
       d="m 49.666273,54.788294 c -0.204748,-0.378825 -0.253021,-0.80731 -0.346686,-1.219557 -0.09721,-0.287883 -0.173892,-0.571103 -0.151297,-0.875914 0.02246,-0.0064 0.04967,-0.03431 0.06737,-0.0191 0.02085,0.01791 0.031,0.09383 0.0061,0.08221 -0.496401,-0.231762 -0.950534,-0.551783 -1.457352,-0.75978 -0.06473,-0.02657 0.05785,0.127751 0.07947,0.194305 0.129532,0.398766 0.204441,0.789379 0.298995,1.202068 0.684011,3.165036 0.663233,6.423059 0.631552,9.644128 -0.04012,2.393495 -0.27246,4.77579 -0.359283,7.166883 0.01781,0.186134 0.03561,0.372266 0.05342,0.5584 0,0 1.633032,0.841608 1.633032,0.841608 v 0 c 0.0338,-0.159486 0.06761,-0.318974 0.10141,-0.478462 0.140041,-2.428182 0.15876,-4.859634 0.139266,-7.291916 -0.107342,-3.246647 -0.137523,-6.520209 -0.7253,-9.724374 -0.246338,-1.607289 -0.01352,-1.38737 -1.819264,-2.337017 -0.07136,-0.03753 -0.101661,0.268787 -0.03846,0.238815 0.111705,0.350065 0.229963,0.696034 0.396407,1.024366 0.210915,0.431507 0.286356,0.922092 0.55441,1.329762 z" />
    <path
       style="fill:currentColor;"
       id="path41"
       d="m 42.473935,52.954422 c -0.415552,-0.77457 -0.128056,-1.538282 0.219194,-2.276237 0.767017,-1.373431 1.832758,-2.19706 3.223535,-2.873195 1.152493,-0.419886 2.442546,-0.546947 3.654838,-0.312549 0.949359,0.183559 1.491951,0.437451 2.395871,0.782708 0.391697,0.21607 0.819039,0.377394 1.175086,0.648211 0.07937,0.06037 -0.355997,-0.06303 -0.298572,0.01849 0.27341,0.38812 0.694402,0.648968 1.015257,0.998887 0.598215,0.652399 1.16586,1.406657 1.598541,2.180905 0.219112,0.392086 0.386704,0.810818 0.580059,1.216229 0.960511,2.35254 1.086159,4.881877 0.71166,7.376496 -0.09026,0.601228 -0.232746,1.193445 -0.34912,1.790168 -0.715127,2.51883 -1.608257,5.087284 -3.245969,7.173965 -0.242004,0.308346 -0.522542,0.584404 -0.78381,0.876604 -1.063149,1.036006 -2.337075,1.899661 -3.85073,2.060419 -0.245769,0.02612 -0.494273,0.0053 -0.74141,0.008 0.366154,0.459028 -1.738445,-0.641286 -1.331603,-0.416052 0.347829,0.192564 0.672576,0.495668 1.068703,0.529596 0.219805,0.01884 -0.3277,-0.299644 -0.458457,-0.477327 -0.377793,-0.513379 -0.345316,-0.675564 -0.484294,-1.291945 -0.0052,-0.248803 -0.04317,-0.499083 -0.01564,-0.746413 0.126288,-1.133983 0.934439,-2.170306 1.904918,-2.73236 0.298502,-0.172876 0.63496,-0.269791 0.952441,-0.404686 2.164617,-0.649263 4.324266,-0.314023 6.399263,0.45529 -0.427162,-0.741225 1.408991,0.980308 1.227307,0.567785 -0.01458,-0.0331 -1.869157,-1.056687 0.287073,0.143217 0,0 0.253198,0.100197 0.253198,0.100197 v 0 c -0.0045,-0.04814 0.02635,-0.117057 -0.01349,-0.144423 -1.01042,-0.693703 -2.124384,-1.301678 -3.234089,-1.823553 -0.304424,-0.110149 -0.602943,-0.238239 -0.913273,-0.330443 -1.823778,-0.54187 -3.742166,-0.563658 -5.562094,-0.0011 -0.319472,0.151451 -0.657069,0.269449 -0.958419,0.454351 -1.000583,0.613934 -1.857791,1.675455 -2.020329,2.862479 -0.03505,0.255966 -0.0035,0.516694 -0.0052,0.775042 0.105712,0.639889 0.06642,0.831381 0.42518,1.379505 0.576808,0.881269 1.896711,1.445019 2.639312,1.861495 0.202284,0.113445 0.425733,0.189987 0.650711,0.246324 0.23427,0.05866 0.47871,0.06428 0.718063,0.09642 0.25056,-0.01384 0.503259,-0.006 0.751679,-0.04147 1.519962,-0.217046 2.784744,-1.127226 3.799773,-2.233555 0.698868,-0.847772 0.928704,-1.062876 1.506027,-2.045245 1.12454,-1.913506 1.776508,-4.057165 2.400914,-6.171327 0.125997,-0.596542 0.274526,-1.188764 0.377997,-1.789625 0.429223,-2.492558 0.405844,-5.040374 -0.56714,-7.406701 -0.189944,-0.412258 -0.351205,-0.838986 -0.569833,-1.236776 -0.546544,-0.994429 -1.73255,-2.566308 -2.632117,-3.25052 -1.653627,-1.257747 -2.186596,-1.490713 -3.712342,-2.298248 -0.912752,-0.33928 -1.50771,-0.606935 -2.46901,-0.782243 -1.237353,-0.225653 -2.549398,-0.052 -3.714925,0.388358 -1.448559,0.755838 -2.38516,1.586696 -3.174939,3.03635 -0.345897,0.834255 -0.566676,1.63921 -0.143769,2.492338 z" />
    <path
       style="fill:currentColor;"
       id="path42"
       d="m 65.173915,49.878551 c 0.345276,-0.253733 0.761259,-0.388744 1.033912,-0.731388 0.223912,-0.237662 0.231725,-0.503886 0.139192,-0.799973 -0.108066,-0.224787 -0.281204,-0.372549 -0.495416,-0.495464 -1.618618,-0.928772 -1.049531,-0.698846 -1.888176,-1.014214 -0.758629,-0.265131 -1.498102,-0.173699 -2.267402,-0.02886 -1.406938,0.354721 -2.327203,1.43769 -3.206192,2.514343 -0.920339,1.193038 -1.631606,2.519558 -1.893257,4.008382 -0.06713,1.14236 0.30191,1.899777 1.243637,2.528927 1.787241,1.132835 2.327031,1.285621 4.134119,1.352153 0.330981,0.05436 0.692531,-0.05126 1.02158,0.01429 0.03927,0.0078 0.07042,0.03811 0.105625,0.05717 -0.5871,-0.341066 -1.174197,-0.68213 -1.761297,-1.023197 -0.473702,0.575451 -1.067948,1.038061 -1.603203,1.555018 -1.158089,1.203385 -2.170668,2.546156 -3.10774,3.926347 -1.213763,1.776558 -2.1209,3.728694 -2.72836,5.788115 -0.235249,1.161749 -0.481518,2.353392 -0.201821,3.53241 0.135024,0.569177 0.263091,0.75856 0.514633,1.262774 0.728601,1.080529 1.667031,1.446303 2.919574,2.087817 0.13848,0.07092 0.301775,0.08742 0.457229,0.09384 0.468971,0.01937 0.744389,-0.100206 1.192924,-0.227343 1.527506,-0.585661 2.673599,-1.768187 3.746344,-2.958174 0.839909,-0.915678 1.550368,-1.940968 2.115822,-3.04605 0.349862,-0.595786 0.536247,-1.239933 0.719426,-1.897248 0.08323,-0.323826 0.251447,-0.647658 0.268732,-0.984361 -0.62679,-1.74629 -1.722024,-1.517716 -2.3329,-0.706075 -0.403981,0.507143 -0.652293,1.105151 -0.887907,1.703059 -0.400854,0.930042 -0.639128,1.90531 -0.830347,2.895852 -0.148355,0.777803 -0.05409,1.513448 0.226846,2.243264 0.454488,1.006337 1.603682,1.996908 2.744525,1.774404 0.526061,-0.139184 0.947425,-0.516255 1.333079,-0.882959 0.571326,-0.577723 1.079707,-1.226228 1.511644,-1.914149 0.420209,-0.608103 0.763596,-1.265997 1.084927,-1.930887 0.251748,-0.533136 0.450162,-1.083554 0.607817,-1.65036 0.104351,-0.283924 0.24865,-0.549746 0.334618,-0.839864 0.197919,-0.73464 -0.558456,-0.540832 -1.75928,-1.033891 -0.04031,-0.01656 -0.255802,0.641432 -0.274762,0.696917 -0.25876,0.82495 -0.452803,1.671098 -0.585103,2.525417 -0.13658,0.821504 -0.12937,1.634929 0.05711,2.444765 0.393518,1.208035 1.199756,1.279147 2.438257,1.958994 0.53861,-0.01976 0.964809,-0.337891 1.354709,-0.682532 0.428432,-0.421699 0.810004,-0.894088 1.190625,-1.36066 0.44074,-0.595413 0.696341,-1.295651 1.041609,-1.944666 0.28529,-0.551191 0.510268,-1.130602 0.77769,-1.689968 0.185169,-0.424069 0.316217,-0.865852 0.491408,-1.294712 0.07943,-0.265972 0.215686,-0.549905 0.170624,-0.833919 -0.623829,-0.280165 -1.225401,-0.616376 -1.871485,-0.840494 -0.09014,-0.03127 -0.539752,1.163616 -0.561115,1.231527 -0.327813,0.843148 -0.470694,1.741416 -0.570211,2.636102 -0.09696,0.638611 -0.0258,1.27699 0.145751,1.894491 0.395628,1.006448 1.357638,1.602441 2.460715,1.822278 0.553503,-0.04598 0.971372,-0.383755 1.349094,-0.760524 0.504288,-0.495917 0.899628,-1.075058 1.273919,-1.670741 0.274457,-0.477856 0.595376,-0.937564 0.819517,-1.441884 0.21975,-0.435186 0.417314,-0.882152 0.526145,-1.358529 0.106371,-0.33278 0.204452,-0.66358 0.275948,-1.005187 0.271938,-0.950147 -1.38007,-2.17194 -2.040033,-1.163714 -0.263607,0.551826 -0.34893,1.153306 -0.49594,1.740051 -0.21172,0.796099 -0.254585,1.601221 -0.210842,2.418943 0.0444,0.518207 0.191945,1.004638 0.506111,1.42145 0.786577,0.734115 1.759495,1.556295 2.855135,1.332118 0.552315,-0.20199 0.97617,-0.575214 1.364202,-1.002252 0.49166,-0.565248 0.890723,-1.201703 1.242849,-1.860814 0.338002,-0.55635 0.593823,-1.149797 0.85762,-1.742401 0.194728,-0.30462 0.279718,-0.633333 0.332113,-0.98611 0.08522,-1.174824 0.1709,-0.491072 -1.856904,-1.530606 -0.282086,0.483693 -0.454525,1.011671 -0.645687,1.534194 -0.270875,0.785797 -0.439764,1.602023 -0.582213,2.419435 -0.158189,0.68947 -0.09413,1.376973 -0.01431,2.069729 0.08084,0.379923 0.142328,0.784911 0.456325,1.042086 1.720032,0.98035 1.700284,1.516901 3.000573,0.866089 0.574593,-0.315859 1.029182,-0.814628 1.527501,-1.238213 0.510574,-0.527288 0.954248,-1.105807 1.345115,-1.726305 0.35588,-0.599723 0.596042,-1.252966 0.883539,-1.885027 0.134117,-0.41592 0.348699,-0.803442 0.474236,-1.221441 0.09469,-0.25627 0.147326,-0.516406 0.09602,-0.786775 -0.681296,-0.357667 -1.337799,-0.767176 -2.043887,-1.073 -0.121793,-0.05275 -0.479071,1.097021 -0.49875,1.169334 -0.16577,0.711044 -0.343554,1.417468 -0.444929,2.141408 -0.117078,0.619011 -0.08606,1.235456 0.0032,1.853965 0.0819,0.426127 0.209558,0.831945 0.468532,1.182933 0.483108,0.472356 1.759402,1.581103 2.594684,1.311754 0.134631,-0.04341 0.256331,-0.119745 0.385135,-0.178221 0.454012,-0.230661 0.768081,-0.600022 1.084951,-0.985221 0.483656,-0.550428 0.81974,-1.210291 1.171678,-1.848328 0.361326,-0.598811 0.645803,-1.239904 0.993831,-1.845575 0.171053,-0.408789 0.379817,-0.800658 0.533754,-1.216673 0.09159,-0.29699 0.217654,-0.576141 0.286647,-0.880504 0.260863,-0.990574 -1.497759,-1.857323 -2.262312,-1.223968 -0.323453,0.415062 -0.540239,0.920856 -0.712822,1.416187 -0.234995,0.66774 -0.428545,1.349759 -0.607856,2.034352 -0.138549,0.716127 -0.225655,1.438889 -0.158496,2.166927 0.04189,0.501933 0.201274,0.983986 0.475242,1.40584 0.639408,0.842343 1.45171,1.060458 2.499802,1.660766 0.136268,0.07805 0.157051,0.04689 0.308462,0.02217 0.417636,-0.09009 0.798734,-0.410853 1.106638,-0.700196 0.42164,-0.320649 0.754806,-0.732084 1.096118,-1.132684 0.343694,-0.416499 0.527143,-0.925753 0.784014,-1.393867 0.251486,-0.603025 0.594346,-1.159436 0.881941,-1.744401 0.260371,-0.502684 0.461052,-1.032684 0.724664,-1.533808 0.13149,-0.350721 0.335997,-0.66662 0.494446,-1.003146 0.511413,-1.175629 -0.923817,-1.15329 -2.068984,-1.726346 -0.355692,0.312587 -0.539374,0.774279 -0.701513,1.208866 -0.275379,0.647652 -0.395476,1.346625 -0.537369,2.032521 -0.205764,0.908034 -0.169291,1.841685 -0.07764,2.761117 0.14029,0.69696 0.352938,1.384581 0.723678,1.994019 0.694409,0.854192 1.899317,1.274961 2.79283,1.756172 0.264377,0.14238 0.5431,0.06519 0.806564,-0.01304 0.08908,-0.02965 0.185701,-0.04241 0.267235,-0.08895 0.254693,-0.145384 0.738719,-0.751989 0.695338,-1.060059 -0.02672,-0.189791 -0.135239,-0.358677 -0.202856,-0.538014 -0.0182,-0.145656 -0.03643,-0.291312 -0.05465,-0.436965 0,0 -0.27328,-0.154609 -0.27328,-0.154609 v 0 c -0.116692,0.06562 -0.233384,0.131244 -0.350076,0.196868 -0.191412,0.01828 -0.386786,0.01204 -0.574235,0.05488 -0.37347,0.08538 -0.316238,0.18061 -0.621898,0.342302 -0.276672,0.146357 -0.595167,0.210833 -0.899472,0.266277 -0.234704,0.0016 -0.307729,0.02135 -0.524778,-0.04335 -0.08076,-0.02408 -0.306586,-0.137906 -0.234812,-0.09373 3.53323,2.174578 2.090272,1.330309 1.430036,0.796086 -0.437121,-0.571481 -0.695791,-1.237938 -0.864751,-1.935406 -0.150424,-0.896623 -0.180806,-1.816571 -5.29e-4,-2.711619 0.146502,-0.674534 0.230417,-1.373264 0.508383,-2.009794 0.125929,-0.340383 0.279509,-0.817001 0.622089,-0.989406 -0.657167,-0.371012 -1.329987,-0.715574 -1.971503,-1.113036 -0.03166,-0.01961 0.06503,-0.04735 0.102198,-0.04512 0.01974,0.0011 0.02561,0.03314 0.02684,0.05287 0.0069,0.109887 -0.04191,0.233775 -0.07365,0.335957 -0.149167,0.338701 -0.364109,0.64607 -0.476422,1.002491 -0.248164,0.509251 -0.469562,1.02966 -0.708139,1.543155 -0.300088,0.574861 -0.609404,1.144236 -0.882364,1.732897 -0.257294,0.449916 -0.4489,0.937509 -0.772322,1.34751 -0.336653,0.393133 -0.663122,0.794673 -1.081013,1.107061 -0.283559,0.247772 -0.60706,0.542952 -1.0023,0.548632 -0.683831,-0.240437 -2.166162,-1.202687 1.609675,0.984602 0.04799,0.0278 -0.09053,-0.06416 -0.134284,-0.09824 -0.175596,-0.136758 -0.123346,-0.0929 -0.264335,-0.271044 -0.338473,-0.348959 -0.506979,-0.834285 -0.57055,-1.309365 -0.09608,-0.7097 -0.06924,-1.415129 0.08437,-2.118162 0.143967,-0.687805 0.357296,-1.360879 0.567938,-2.030563 0.156658,-0.456306 0.329563,-0.923555 0.64094,-1.299697 0.750422,-0.408757 1.264359,0.686724 -1.639035,-1.125114 -0.03923,-0.02447 0.342802,-0.0759 0.104052,0.114469 -0.0905,0.288367 -0.266565,0.535856 -0.353036,0.823214 -0.137782,0.406998 -0.354242,0.787181 -0.51663,1.183889 -0.323771,0.619443 -0.645213,1.240152 -0.980417,1.853528 -0.340167,0.627282 -0.696899,1.259115 -1.177832,1.790764 -0.305925,0.35176 -0.60951,0.695674 -1.047618,0.886266 -0.170428,0.07698 -0.297547,0.137234 -0.487114,0.0858 -0.04983,-0.01352 -0.187121,-0.08637 -0.142904,-0.05973 0.580422,0.349764 2.591782,1.533282 1.752796,1.029912 -0.334761,-0.250902 -0.451519,-0.689758 -0.571275,-1.072719 -0.100854,-0.607644 -0.167463,-1.20319 -0.07518,-1.819076 0.08556,-0.719077 0.221036,-1.425295 0.404379,-2.126054 0.479224,-1.618147 1.131636,-0.568341 -1.441326,-2.111822 0.110868,0.123973 -0.06952,0.48202 -0.07722,0.630213 -0.149323,0.406205 -0.32094,0.801738 -0.43915,1.218129 -0.258593,0.634098 -0.499224,1.275196 -0.844143,1.869763 -0.363878,0.60816 -0.805397,1.159769 -1.290772,1.676222 -0.484341,0.413084 -0.912929,0.915324 -1.499272,1.18672 -0.187613,0.0847 -0.372306,0.184002 -0.583097,0.191299 -0.0836,0.0029 -0.316801,-0.0967 -0.245205,-0.05343 0.586333,0.35433 1.182812,0.691603 1.774216,1.037403 -0.428976,-0.19067 -0.467121,-0.459291 -0.598077,-0.891376 -0.09241,-0.679535 -0.188127,-1.354897 -0.05939,-2.038763 0.124757,-0.809683 0.312804,-1.608024 0.562928,-2.388013 0.168918,-0.499922 0.339143,-0.995778 0.608105,-1.452631 -1.850104,-1.17802 -1.71232,-1.737024 -1.861153,-0.577025 -0.04036,0.331523 -0.175088,0.624838 -0.321271,0.922952 -0.255084,0.590449 -0.474464,1.19431 -0.808127,1.74929 -0.355198,0.640641 -0.752454,1.255106 -1.247799,1.798415 -0.353031,0.392168 -0.757838,0.75162 -1.286547,0.872617 -0.176173,0.01304 -0.202348,0.02852 -0.374428,-0.01093 -0.05157,-0.01183 -0.195328,-0.07882 -0.150317,-0.05101 2.969776,1.834843 2.086075,1.255729 1.448424,0.831483 -0.364405,-0.36901 -0.558451,-0.818013 -0.639799,-1.331847 -0.06044,-0.80359 -0.08212,-1.601314 0.14529,-2.386232 0.117126,-0.568939 0.183486,-1.145722 0.466159,-1.664509 0.02506,-0.03142 0.04519,-0.06749 0.07517,-0.09426 0.01929,-0.01722 0.09093,-0.02061 0.0693,-0.03475 -2.533126,-1.655879 -1.564354,-1.592421 -1.715777,-0.731996 -0.05418,0.34254 -0.177901,0.665089 -0.290733,0.991378 -0.08855,0.466053 -0.255931,0.908939 -0.482219,1.326282 -0.245668,0.486728 -0.530987,0.950936 -0.793702,1.428364 -0.363249,0.580546 -0.740217,1.15516 -1.235525,1.634773 -0.339256,0.314068 -0.752104,0.655751 -1.245579,0.56519 -0.723751,-0.309777 -0.276725,-0.126186 1.484961,0.909447 0.04415,0.02596 -0.09008,-0.05119 -0.126518,-0.08718 -0.140309,-0.138596 -0.215697,-0.342775 -0.321445,-0.504478 -0.242623,-0.586071 -0.310404,-1.222071 -0.2594,-1.853438 0.08663,-0.885291 0.218799,-1.765469 0.549798,-2.597692 0.102175,-0.279657 0.215795,-0.551061 0.353817,-0.815216 0.121269,-0.232093 0.202391,-0.295026 0.196689,-0.299 -0.535115,-0.372827 -1.119288,-0.669769 -1.678932,-1.004655 0.243512,0.0048 0.0047,0.542025 -0.01701,0.673899 -0.156088,0.431181 -0.296153,0.866645 -0.470122,1.290251 -0.26176,0.559819 -0.453184,1.15297 -0.753026,1.695651 -0.327543,0.644202 -0.652314,1.290392 -1.088641,1.870702 -0.374806,0.45579 -0.742048,0.922071 -1.159595,1.338977 -0.357647,0.296521 -0.769527,0.611137 -1.260943,0.495657 0.51526,0.304279 1.034116,0.602547 1.545778,0.912834 0.04661,0.02826 -0.103531,-0.03693 -0.149566,-0.06612 -0.267132,-0.169402 -0.394669,-0.466733 -0.512533,-0.745016 -0.234973,-0.784688 -0.266774,-1.582933 -0.129119,-2.392725 0.127865,-0.840576 0.301995,-1.676215 0.586687,-2.478971 0.0141,-0.03376 0.173564,-0.422349 0.211892,-0.492638 0.02447,-0.04488 0.128873,-0.09485 0.08802,-0.12558 -0.388848,-0.29247 -1.577179,-1.730197 -1.712066,-0.937246 -0.06884,0.297799 -0.21463,0.565385 -0.319622,0.850929 -0.126278,0.563552 -0.364977,1.083934 -0.597837,1.610201 -0.3126,0.659839 -0.629361,1.318948 -1.035166,1.928598 -0.4533,0.658252 -0.902473,1.326489 -1.505098,1.861521 -0.372171,0.330121 -0.780595,0.674603 -1.286447,0.756769 -0.686104,-0.02569 -1.780294,-0.793218 1.162704,0.855956 0.06558,0.03675 -0.114192,-0.09899 -0.161581,-0.15735 -0.06866,-0.08455 -0.239959,-0.384463 -0.288515,-0.466934 -0.314325,-0.690742 -0.445863,-1.402733 -0.311142,-2.161648 0.129878,-0.991058 0.391398,-1.948239 0.778851,-2.871193 0.25582,-0.569878 0.517557,-1.136478 0.92338,-1.61835 0.03759,-0.04294 0.150468,-0.183454 0.214725,-0.222692 0.105175,-0.06422 0.180248,0.0011 0.151808,-0.01627 -1.642436,-0.996584 -2.310993,-1.049342 -1.574406,-0.97682 0.145965,0.255108 -0.163235,0.656733 -0.202264,0.910476 -0.240739,0.61836 -0.402928,1.269984 -0.75688,1.843659 -0.534241,1.100466 -1.242518,2.10194 -2.043594,3.025312 -1.044458,1.176525 -2.171388,2.337282 -3.705016,2.840675 -0.47026,0.0999 -0.684951,0.191707 -1.16038,0.125788 -0.145542,-0.02019 -0.539578,-0.216794 -0.421333,-0.129571 0.419264,0.309268 0.880684,0.558429 1.338879,0.806397 0.155405,0.0841 -0.300239,-0.190828 -0.427654,-0.313262 C 56.291773,73.47415 56.185069,73.30651 56.06108,73.15482 55.955167,72.970664 55.833668,72.794632 55.743342,72.602348 55.121807,71.279252 55.28498,69.826663 55.567632,68.43864 c 0.566209,-2.055521 1.412219,-4.014001 2.624699,-5.777769 0.947639,-1.364975 1.977741,-2.690281 3.197973,-3.824299 0.586751,-0.530661 1.251159,-0.984564 1.770584,-1.583742 -2.051849,-1.478474 -1.156049,-1.203598 -2.78239,-1.207326 -0.386411,-0.0096 -0.770879,-0.02413 -1.153909,-0.08168 -0.735555,-0.110492 -1.99726,-0.734517 0.436597,0.599215 -0.984361,-0.531198 -1.393997,-1.221274 -1.404649,-2.352254 0.06634,-0.456684 0.09259,-0.757634 0.231357,-1.2046 0.314632,-1.013442 0.868725,-1.939671 1.46418,-2.808835 0.838735,-1.062271 1.742226,-2.111939 3.123724,-2.423335 0.731488,-0.12614 1.445747,-0.199737 2.159995,0.06324 0.662818,0.275685 0.29854,0.138015 -0.871913,-0.560538 -0.07702,-0.04597 0.155083,0.09019 0.233518,0.133702 0.220022,0.122041 0.16523,0.0596 0.320405,0.230703 0.03137,0.0346 0.05881,0.07258 0.08821,0.108863 0.212307,0.251941 0.301217,0.536665 0.272769,0.867288 -0.03009,0.112893 -0.03363,0.233834 -0.07908,0.341469 -0.102838,0.243562 -0.373586,0.41285 -0.558972,0.582615 z" />
    <path
       style="fill:currentColor;"
       id="path43"
       d="m 95.548047,56.285275 c -0.538912,0.334359 -0.966997,0.80877 -1.259089,1.369147 -0.131678,0.291671 -0.334042,0.666591 -0.07499,0.940938 -0.309486,0.810204 2.286921,1.783612 2.496336,0.729652 -0.02487,-0.95137 -1.645127,-2.08602 -2.388508,-1.37849 -0.229177,0.361312 0.241115,0.63218 0.471657,0.82986 0,0 0.781905,0.40445 0.781905,0.40445 v 0 c 0.277749,0.08127 0.54134,0.228254 0.817361,0.101198 0.348972,1.369994 -2.807446,-1.834779 -1.779244,-1.012079 0.01431,0.02082 0.07737,0.03103 0.05868,0.04805 -0.05271,0.04799 -0.138512,0.05221 -0.199033,0.02479 0.616812,0.358441 1.233625,0.716886 1.850438,1.075327 -0.455616,-0.154789 -0.323893,-0.347059 -0.241062,-0.764664 0.151841,-0.584613 0.39838,-1.068242 0.807347,-1.519497 z" />
  </g>
</svg>
