<?xml version="1.0" encoding="UTF-8" standalone="no"?>

<svg
   width="128mm"
   height="128mm"
   viewBox="0 0 128 128"
   version="1.1"
   id="svg1"
   xml:space="preserve"
   xmlns="http://www.w3.org/2000/svg"
   xmlns:svg="http://www.w3.org/2000/svg"><defs
     id="defs1" /><g
     id="layer1"
     transform="translate(-19.266573,-50.663944)"><rect
       style="fill:#232425;fill-opacity:1;stroke:none;stroke-width:0.202277"
       id="rect211605"
       width="128"
       height="128"
       x="19.266573"
       y="50.663944" /><path
       style="fill:#bada55;fill-opacity:1;stroke:none;stroke-width:0.264999"
       d="m 56.469522,73.763139 -0.0048,16.60887 23.231337,-0.0711 0.0778,10.662301 -29.131688,0.0803 0.13926,-5.305051 -5.839312,-0.0741 -0.02914,-16.43296 5.7371,0.0513 -0.01681,-5.48847 z"
       id="path211600" /><path
       style="fill:#bada55;fill-opacity:1;stroke:none;stroke-width:0.264999"
       d="m 91.654849,90.202239 -0.007,10.904781 5.84354,-0.004 -0.0525,5.46485 11.650311,-0.0107 0.0817,-5.49072 5.64016,0.0355 0.0391,-10.903301 -5.8215,0.0213 0.0925,-5.47656 -11.714121,-0.0213 -0.0641,5.47656 z"
       id="path211601" /><path
       style="fill:#bada55;fill-opacity:1;stroke:none;stroke-width:0.264999"
       d="m 79.857709,112.17531 0.0438,10.9885 -29.230294,0.0889 -0.0089,5.32095 -5.802989,0.003 0.100894,16.54405 5.780327,-0.0436 -0.0015,-5.4942 5.778799,-0.0451 0.05579,-5.40833 5.778801,-0.012 0.08281,-5.6147 17.461272,0.0904 0.10852,-5.46107 11.48678,0.0196 -0.0301,5.25471 17.517061,0.13706 0.0362,5.53931 5.99105,0.0662 -0.0285,5.32095 5.78774,0.0859 -0.009,5.51816 h 5.77117 l 0.0724,-16.46733 -5.96861,-0.015 0.0874,-5.35713 -29.232871,-0.0466 0.0769,-11.12982 z"
       id="path211602" /><path
       style="fill:#7a8c38;fill-opacity:1;stroke:none;stroke-width:0.264999"
       d="m 44.93366,95.698519 -2e-6,5.286461 5.778225,0.041 -0.06147,5.55284 29.096026,-0.0205 4e-5,-5.57333 -29.055045,0.0615 0.06147,-5.327441 z"
       id="path211603" /><path
       style="fill:#7a8c38;fill-opacity:1;stroke:none;stroke-width:0.264999"
       d="m 91.642369,101.08737 -0.11679,5.58263 5.97973,-0.0233 -0.11679,5.25562 11.562361,0.0934 -3e-5,-5.46585 5.88629,0.0234 -0.0234,-5.4892 -5.65271,-5e-5 -0.0234,5.4892 -11.632431,0.0467 -0.0701,-5.4892 z"
       id="path211604" /><path
       style="fill:#7a8c38;fill-opacity:1;stroke:none;stroke-width:0.264999"
       d="m 44.972568,145.11314 -0.03188,5.39345 5.705551,0.009 0.01374,-5.4352 5.807173,0.0143 0.03241,-5.66821 5.769839,-0.0132 0.06869,-5.32529 17.535828,-0.0358 0.0363,-5.55884 11.66713,-0.0226 0.1214,5.52097 17.406211,0.0742 0.0104,5.35119 5.90281,0.0324 0.0599,5.59461 5.67755,-0.0594 0.0467,5.49844 5.76931,-0.0226 -0.0412,-5.40279 -5.78852,-0.0461 0.0187,-5.55338 -5.75169,-0.0275 -0.0918,-5.41547 -5.92253,0.0505 -0.0163,-5.54528 -17.380341,-0.0322 -0.0824,-5.37456 -11.51936,-0.0196 -0.0824,5.44025 -17.5022,-0.0137 -0.01374,5.53641 -5.866126,0.0137 0.01374,5.39904 -5.866126,0.0275 v 5.59137 z"
       id="path211605" /></g></svg>
