<svg xmlns="http://www.w3.org/2000/svg" xml:space="preserve" width="128mm" height="128mm" viewBox="0 0 128 128"><path fill="#232425" d="M0 0h128v128H0z"/><path fill="#bada55" d="m37.202949 23.099195-.0048 16.60887 23.231337-.0711.0778 10.662301-29.131688.0803.13926-5.305051-5.839312-.0741-.02914-16.43296 5.7371.0513-.01681-5.48847zm35.185327 16.4391-.007 10.904781 5.84354-.004-.0525 5.46485 11.650311-.0107.0817-5.49072 5.64016.0355.0391-10.903301-5.8215.0213.0925-5.47656-11.714121-.0213-.0641 5.47656zm-11.79714 21.973071.0438 10.9885-29.230294.0889-.0089 5.32095-5.802989.003.100894 16.54405 5.780327-.0436-.0015-5.4942 5.778799-.0451.05579-5.40833 5.778801-.012.08281-5.6147 17.461272.0904.10852-5.46107 11.48678.0196-.0301 5.25471 17.517061.13706.0362 5.53931 5.99105.0662-.0285 5.32095 5.78774.0859-.009 5.51816h5.77117l.0724-16.46733-5.96861-.015.0874-5.35713-29.232871-.0466.0769-11.12982z"/><path fill="#7a8c38" d="m25.667087 45.034575-.000002 5.286461 5.778225.041-.06147 5.55284 29.096026-.0205.00004-5.57333-29.055045.0615.06147-5.327441zm46.708709 5.388851-.11679 5.58263 5.97973-.0233-.11679 5.25562 11.562361.0934-.00003-5.46585 5.88629.0234-.0234-5.4892-5.65271-.00005-.0234 5.4892-11.632431.0467-.0701-5.4892zm-46.669801 44.02577-.03188 5.39345 5.705551.009.01374-5.4352 5.807173.0143.03241-5.66821 5.769839-.0132.06869-5.32529 17.535828-.0358.0363-5.55884 11.66713-.0226.1214 5.52097 17.406211.0742.0104 5.35119 5.90281.0324.0599 5.59461 5.67755-.0594.0467 5.49844 5.76931-.0226-.0412-5.40279-5.78852-.0461.0187-5.55338-5.75169-.0275-.0918-5.41547-5.92253.0505-.0163-5.54528-17.380341-.0322-.0824-5.37456-11.51936-.0196-.0824 5.44025-17.5022-.0137-.01374 5.53641-5.866126.0137.01374 5.39904-5.866126.0275v5.59137z"/></svg>